<?xml version="1.0" encoding="iso-8859-1"?>
<!-- Generator: Adobe Illustrator 19.0.0, SVG Export Plug-In . SVG Version: 6.00 Build 0)  -->
<svg version="1.1" id="Capa_1" xmlns="http://www.w3.org/2000/svg" xmlns:xlink="http://www.w3.org/1999/xlink" x="0px" y="0px"
	 viewBox="0 0 512 512" style="enable-background:new 0 0 512 512;" xml:space="preserve">
<circle style="fill:#0088FF;" cx="256" cy="256" r="256"/>
<path style="fill:#004EB1;" d="M512,256c0-11.262-0.734-22.352-2.144-33.23L387.617,100.531l-32.126,32.126L272.87,53h-0.004
	h-33.732v52.877l22.327,19.578c-1.812-0.074-3.631-0.122-5.461-0.122c-30.002,0-57.638,10.119-79.695,27.12l-51.922-51.922
	l-23.852,23.852l51.922,51.922c-17.001,22.057-27.12,49.692-27.12,79.695c0,0.25,0.001,0.5,0.003,0.75l-19.459-17.616H53v33.732
	l81.866,80.416l-34.335,34.335L222.77,509.856C233.648,511.266,244.738,512,256,512C397.385,512,512,397.385,512,256z"/>
<circle style="fill:#FFD400;" cx="256" cy="256" r="130.67"/>
<path style="fill:#FFAA20;" d="M386.67,256c0,72.17-58.5,130.67-130.67,130.67V125.33C328.17,125.33,386.67,183.83,386.67,256z"/>
<rect x="239.13" y="53" style="fill:#FFD400;" width="33.732" height="52.877"/>
<rect x="256" y="53" style="fill:#FFAA20;" width="16.87" height="52.88"/>
<rect x="239.13" y="406.12" style="fill:#FFD400;" width="33.732" height="52.877"/>
<g>
	<rect x="256" y="406.12" style="fill:#FFAA20;" width="16.87" height="52.88"/>
	<rect x="406.12" y="239.13" style="fill:#FFAA20;" width="52.877" height="33.732"/>
</g>
<rect x="53" y="239.13" style="fill:#FFD400;" width="52.877" height="33.732"/>
<rect x="363.985" y="104.703" transform="matrix(-0.7071 -0.7071 0.7071 -0.7071 557.4226 493.1746)" style="fill:#FFAA20;" width="33.732" height="52.876"/>
<rect x="114.287" y="354.409" transform="matrix(-0.7071 -0.7071 0.7071 -0.7071 -45.4085 742.8859)" style="fill:#FFD400;" width="33.732" height="52.876"/>
<rect x="363.99" y="354.41" transform="matrix(0.7071 -0.7071 0.7071 0.7071 -157.7503 380.8536)" style="fill:#FFAA20;" width="33.732" height="52.876"/>
<rect x="114.289" y="104.717" transform="matrix(0.7071 -0.7071 0.7071 0.7071 -54.3265 131.1547)" style="fill:#FFD400;" width="33.732" height="52.876"/>
<g>
</g>
<g>
</g>
<g>
</g>
<g>
</g>
<g>
</g>
<g>
</g>
<g>
</g>
<g>
</g>
<g>
</g>
<g>
</g>
<g>
</g>
<g>
</g>
<g>
</g>
<g>
</g>
<g>
</g>
</svg>
